<svg
    width="1em"
    height="1em"
    style="font-size: 67px"
    viewBox="0 0 67 67"
    fill="none"
    xmlns="http://www.w3.org/2000/svg"
>
    <path
        d="M0 33.5C0 51.9717 15.0283 67 33.5 67C51.9717 67 67 51.9717 67 33.5C67 15.0283 51.9717 0 33.5 0V11.9719C45.3785 11.9719 55.0281 21.6349 55.0281 33.5C55.0281 45.3651 45.3651 55.0281 33.5 55.0281C21.6349 55.0281 11.9719 45.3651 11.9719 33.5H0Z"
        fill="#299D92"
    />
    <path
        d="M40.1193 26.8805C37.9171 24.6783 34.8875 23.8107 32.0313 24.2645C26.1721 25.1854 22.702 21.7153 23.6229 15.8562C24.0767 13 23.2092 9.97031 21.007 7.76812C17.35 4.11115 11.4241 4.11115 7.76714 7.76812C4.11017 11.4251 4.11017 17.351 7.76714 21.008C9.96933 23.2102 13.0124 24.0777 15.8685 23.6239C21.7277 22.703 25.1845 26.1598 24.2502 32.0189C23.7964 34.8751 24.6506 37.9048 26.8661 40.1203C30.5231 43.7773 36.449 43.7773 40.106 40.1203C43.763 36.4633 43.763 30.5374 40.106 26.8805H40.1193Z"
        fill="#154444"
    />
</svg>
