<svg width="18" height="18" viewBox="0 0 18 18" fill="none" xmlns="http://www.w3.org/2000/svg">
<g clip-path="url(#clip0_179_208)">
<path d="M16.5 14.4595V17.2502C16.5 17.6642 16.1648 18.0002 15.75 18.0002C15.3353 18.0002 15 17.6642 15 17.2502V14.4595C15 13.3907 14.2388 12.463 13.191 12.253L8.10301 11.2352C7.75276 11.1655 7.50001 10.8572 7.50001 10.5002V5.33048C7.50001 4.92698 7.22851 4.56698 6.88201 4.51148C6.65251 4.47398 6.43501 4.53398 6.26476 4.67873C6.09676 4.82123 6.00001 5.02973 6.00001 5.25023V15.4787C6.00001 15.7667 5.83501 16.0292 5.57551 16.1545C5.31751 16.2797 5.00851 16.246 4.78276 16.0652L2.80501 14.4902C2.45776 14.1692 1.98376 14.1857 1.70251 14.4872C1.42051 14.7895 1.43626 15.2665 1.73776 15.55L2.77051 16.546C3.06826 16.8332 3.07726 17.308 2.78926 17.6065C2.50201 17.9042 2.02726 17.9125 1.72876 17.6252L0.703513 16.6367C-0.192737 15.796 -0.240737 14.3695 0.606013 13.4635C1.45276 12.559 2.87776 12.5102 3.78376 13.3555L4.50001 13.9247V5.25023C4.50001 4.58948 4.78876 3.96473 5.29276 3.53573C5.79601 3.10673 6.46351 2.92223 7.12201 3.03023C8.19226 3.20348 8.99926 4.19273 8.99926 5.32973V9.88448L13.4843 10.7815C15.231 11.131 16.4993 12.6775 16.4993 14.4587L16.5 14.4595ZM2.65801 7.87523C2.76301 7.87523 2.86876 7.85348 2.97076 7.80698C3.34726 7.63448 3.51226 7.18898 3.33976 6.81248C3.11401 6.32123 3.00001 5.79548 3.00001 5.25023C3.00001 3.18248 4.68226 1.50023 6.75001 1.50023C8.81776 1.50023 10.5 3.18248 10.5 5.25023C10.5 5.79698 10.386 6.32198 10.161 6.81248C9.98776 7.18898 10.1528 7.63448 10.5285 7.80698C10.9073 7.98023 11.3513 7.81523 11.523 7.43873C11.8395 6.75098 12 6.01448 12 5.25098C12 2.35598 9.64501 0.000976562 6.75001 0.000976562C3.85501 0.000976562 1.50001 2.35523 1.50001 5.25023C1.50001 6.01298 1.66051 6.74873 1.97626 7.43798C2.10226 7.71323 2.37451 7.87523 2.65876 7.87523H2.65801Z" fill="white"/>
</g>
<defs>
<clipPath id="clip0_179_208">
<rect width="18" height="18" fill="white"/>
</clipPath>
</defs>
</svg>
