<svg alt="Coffee" xmlns="http://www.w3.org/2000/svg" xml:space="preserve" viewBox="0 0 90 40"><path fill="#17171a" d="M21 18h1.8v18.7H21zM29.6 20.2c.1.1 2.4 4.2 2.4 8.9v7.6h1.7v-7.6a21 21 0 0 0-2.6-9.8zM10.1 36.7v-7.6a21 21 0 0 1 2.7-9.8l1.4.9s-2.4 4.1-2.4 8.9v7.6z"></path><path fill="#17171a" fill-rule="evenodd" d="M42.2 31.6v6.8h1.6v1.7H0v-1.7h1.7v-6.8c0-13.1 8.1-22 20.2-22s20.3 8.9 20.3 22zM21.9 11.3c-11.2 0-18.5 8-18.5 20.3v6.8h37v-6.8c0-12.3-7.2-20.3-18.5-20.3z" clip-rule="evenodd"></path><path fill="#000" stroke-width=".6" d="m85.3 34.6-2.9-24L74.1 6h-9l-8.4 4.7-2.9 23.8c-.4 2.3-2.8 2.3-2.9 2.3h37.3s-2.5 0-2.9-2.2zm-27.2-23 7.4-4.1h8.2l7.4 4.1 2.8 23.1c.1 1 .5 1.6 1 2.1H54.2a4 4 0 0 0 1-2Z"></path><rect width="39.7" height="3.2" x="49.7" y="36.2" fill="none" stroke="#000" stroke-width="1.2" rx="1.8" ry="1.6"></rect><path d="m53.6 36.8 4-23.9h24l4 24z"></path></svg>